<svg width="512" height="512" viewBox="0 0 512 512" fill="none" xmlns="http://www.w3.org/2000/svg">
  <!-- Background rounded square -->
  <rect width="512" height="512" rx="115" fill="#0054A6"/>
  
  <!-- White S letter -->
  <path d="M256 96C193.5 96 144 119.5 144 168C144 202 168 222 208 234L272 252C296 260 304 270 304 288C304 312 280 328 248 328C212 328 188 310 184 280H128C132 336 180 384 248 384C312 384 360 356 360 300C360 266 336 246 296 234L232 216C208 208 200 198 200 180C200 156 224 140 256 140C288 140 308 156 312 184H368C364 132 316 96 256 96Z" fill="white"/>
</svg>
