<svg width="512" height="512" viewBox="0 0 512 512" fill="none" xmlns="http://www.w3.org/2000/svg">
  <!-- Background rounded square -->
  <rect width="512" height="512" rx="115" fill="#0054A6"/>
  
  <!-- White S letter - clearer, bolder design -->
  <path d="M256 80C184 80 128 110 128 168C128 204 152 230 200 244L276 266C308 276 320 290 320 312C320 342 288 364 248 364C204 364 172 342 168 304H104C108 368 164 416 248 416C328 416 384 380 384 312C384 276 360 250 312 236L236 214C204 204 192 190 192 168C192 138 224 116 256 116C296 116 324 136 328 172H392C388 112 336 80 256 80Z" fill="white" stroke="white" stroke-width="4" stroke-linejoin="round"/>
  
  <!-- Additional clarity with subtle shadow effect -->
  <path d="M256 80C184 80 128 110 128 168C128 204 152 230 200 244L276 266C308 276 320 290 320 312C320 342 288 364 248 364C204 364 172 342 168 304H104C108 368 164 416 248 416C328 416 384 380 384 312C384 276 360 250 312 236L236 214C204 204 192 190 192 168C192 138 224 116 256 116C296 116 324 136 328 172H392C388 112 336 80 256 80Z" fill="white" opacity="1"/>
</svg>
