<svg width="1200" height="630" viewBox="0 0 1200 630" xmlns="http://www.w3.org/2000/svg">
  <!-- Background Gradient -->
  <defs>
    <linearGradient id="bg" x1="0%" y1="0%" x2="100%" y2="100%">
      <stop offset="0%" style="stop-color:#fef3c7;stop-opacity:1" />
      <stop offset="50%" style="stop-color:#fbbf24;stop-opacity:0.3" />
      <stop offset="100%" style="stop-color:#ffffff;stop-opacity:1" />
    </linearGradient>
  </defs>
  
  <!-- Background -->
  <rect width="1200" height="630" fill="url(#bg)"/>
  
  <!-- Brand Circle -->
  <circle cx="150" cy="315" r="80" fill="#f59e0b" opacity="0.2"/>
  <circle cx="150" cy="315" r="60" fill="#f59e0b" opacity="0.4"/>
  
  <!-- Book Icon -->
  <g transform="translate(120, 290)">
    <rect x="0" y="0" width="60" height="45" rx="4" fill="#ffffff" stroke="#f59e0b" stroke-width="3"/>
    <line x1="30" y1="0" x2="30" y2="45" stroke="#f59e0b" stroke-width="2"/>
    <line x1="15" y1="15" x2="25" y2="15" stroke="#f59e0b" stroke-width="2"/>
    <line x1="35" y1="15" x2="45" y2="15" stroke="#f59e0b" stroke-width="2"/>
    <line x1="15" y1="25" x2="25" y2="25" stroke="#f59e0b" stroke-width="2"/>
    <line x1="35" y1="25" x2="45" y2="25" stroke="#f59e0b" stroke-width="2"/>
  </g>
  
  <!-- Main Text -->
  <text x="280" y="280" font-family="system-ui, -apple-system, sans-serif" font-size="72" font-weight="bold" fill="#111827">
    StudyBuddy
  </text>
  <text x="720" y="280" font-family="system-ui, -apple-system, sans-serif" font-size="72" font-weight="bold" fill="#f59e0b">
    Works
  </text>
  
  <!-- Tagline -->
  <text x="280" y="340" font-family="system-ui, -apple-system, sans-serif" font-size="32" fill="#6b7280">
    AI-Powered CAPS Tutoring for South Africa
  </text>
  
  <!-- Features -->
  <g transform="translate(280, 380)">
    <!-- Feature 1 -->
    <circle cx="10" cy="10" r="6" fill="#10b981"/>
    <text x="30" y="16" font-family="system-ui, -apple-system, sans-serif" font-size="24" fill="#374151">
      24/7 Homework Help
    </text>
    
    <!-- Feature 2 -->
    <circle cx="10" cy="50" r="6" fill="#10b981"/>
    <text x="30" y="56" font-family="system-ui, -apple-system, sans-serif" font-size="24" fill="#374151">
      R99/Month • All Subjects
    </text>
    
    <!-- Feature 3 -->
    <circle cx="10" cy="90" r="6" fill="#10b981"/>
    <text x="30" y="96" font-family="system-ui, -apple-system, sans-serif" font-size="24" fill="#374151">
      CAPS & IEB Aligned
    </text>
  </g>
  
  <!-- Bottom Badge -->
  <rect x="850" y="520" width="300" height="60" rx="30" fill="#f59e0b"/>
  <text x="1000" y="558" font-family="system-ui, -apple-system, sans-serif" font-size="24" font-weight="bold" fill="#ffffff" text-anchor="middle">
    Try Free for 7 Days
  </text>
  
  <!-- Decorative Elements -->
  <circle cx="1050" cy="150" r="40" fill="#fbbf24" opacity="0.2"/>
  <circle cx="950" cy="100" r="20" fill="#f59e0b" opacity="0.3"/>
  <circle cx="1100" cy="500" r="60" fill="#fcd34d" opacity="0.15"/>
</svg>
